<?xml version="1.0" standalone="no"?>
<!DOCTYPE svg PUBLIC "-//W3C//DTD SVG 20010904//EN"
 "http://www.w3.org/TR/2001/REC-SVG-20010904/DTD/svg10.dtd">
<svg version="1.0" xmlns="http://www.w3.org/2000/svg"
 width="700.000000pt" height="700.000000pt" viewBox="0 0 700.000000 700.000000"
 preserveAspectRatio="xMidYMid meet">
<metadata>
Created by potrace 1.14, written by Peter Selinger 2001-2017
</metadata>
<g transform="translate(0.000000,700.000000) scale(0.100000,-0.100000)"
fill="#000000" stroke="none">
<path d="M3085 5838 c-54 -56 -96 -111 -128 -169 l-48 -86 -57 9 c-98 17 -343
3 -463 -25 -125 -30 -273 -79 -349 -117 -134 -67 -268 -191 -377 -349 -2 -2
-11 3 -20 12 -34 30 -169 87 -243 103 -99 21 -282 21 -383 -1 -368 -77 -700
-302 -836 -564 -21 -42 -60 -146 -86 -231 -25 -85 -55 -169 -65 -187 -16 -27
-16 -32 -3 -37 33 -13 53 -4 84 39 38 53 49 57 43 13 -9 -71 -24 -229 -24
-255 1 -24 5 -21 30 29 16 31 33 59 37 61 5 3 6 -31 4 -75 -7 -172 31 -353
109 -513 140 -288 405 -498 804 -634 65 -23 121 -40 122 -38 2 2 -26 27 -62
57 -75 61 -141 149 -185 245 -36 81 -34 102 6 45 76 -109 230 -218 360 -255
33 -9 89 -34 125 -56 98 -58 207 -105 295 -129 276 -72 581 -33 831 106 33 19
63 32 66 29 10 -11 282 126 347 174 170 126 284 290 327 467 8 38 18 76 21 84
10 31 54 -174 51 -238 -3 -60 -2 -61 14 -40 20 27 19 28 59 -48 178 -336 522
-562 919 -605 384 -41 795 146 1010 461 44 65 100 175 124 245 10 28 24 61 31
75 7 14 21 63 31 110 22 112 15 310 -16 424 l-21 80 50 46 c62 57 72 90 43
144 -27 49 -23 55 78 106 101 51 174 71 258 72 87 1 123 -7 195 -44 82 -41
132 -90 169 -166 31 -63 33 -72 33 -177 0 -77 -6 -128 -18 -169 -13 -42 -15
-62 -8 -69 6 -6 11 -19 11 -28 0 -24 26 -31 43 -11 48 54 120 254 137 379 27
205 -52 364 -223 444 -153 71 -320 57 -495 -42 -50 -28 -54 -30 -37 -10 66 77
211 163 321 192 205 53 435 -53 529 -244 30 -63 55 -172 55 -247 0 -140 -58
-361 -140 -533 -33 -71 -39 -91 -30 -103 7 -8 18 -14 24 -14 18 0 56 -101 50
-131 -6 -29 6 -42 30 -33 24 9 132 183 196 317 241 500 144 903 -270 1121
-116 61 -192 81 -310 81 -84 0 -119 -5 -173 -24 -177 -60 -349 -230 -475 -469
-47 -89 -48 -90 -72 -76 -29 15 -98 18 -120 4 -11 -7 -35 13 -103 85 -154 164
-316 268 -528 339 -111 38 -261 66 -346 66 -52 0 -53 0 -53 30 0 44 -24 96
-53 115 -14 8 -45 17 -71 18 -52 2 -51 1 -36 92 6 33 11 126 11 206 0 157 -17
262 -61 363 -29 68 -101 167 -149 205 l-39 31 -413 0 -413 0 -81 -82z m660
-32 c59 -15 126 -48 173 -85 80 -61 182 -250 197 -362 l6 -44 -35 65 c-126
228 -325 337 -526 286 -107 -27 -212 -113 -265 -217 l-15 -27 -60 35 -60 36
27 49 c36 66 131 168 193 208 101 65 248 88 365 56z m88 -499 c53 -26 91 -54
128 -95 51 -56 129 -175 129 -197 0 -5 -15 -17 -32 -25 -52 -25 -72 -61 -74
-136 l-1 -65 -81 -41 c-45 -23 -112 -65 -149 -95 -36 -29 -69 -53 -73 -53 -3
0 -14 25 -25 56 -18 52 -73 157 -120 229 -11 16 -15 27 -10 24 6 -3 38 -23 73
-43 35 -21 65 -36 68 -33 26 26 -135 348 -206 412 -36 32 -22 50 70 87 35 14
66 18 136 15 82 -3 99 -7 167 -40z m467 -347 c17 -9 40 -58 40 -85 0 -7 -36
-16 -96 -24 -53 -7 -117 -19 -143 -27 -62 -19 -61 -19 -61 27 0 72 25 96 114
109 76 11 125 11 146 0z m-2590 -685 c0 -118 2 -215 5 -215 2 0 25 13 50 29
62 39 132 55 211 47 47 -5 64 -3 64 6 0 6 -14 47 -32 90 -17 42 -30 80 -27 82
2 3 85 -37 184 -87 202 -103 194 -95 246 -252 29 -86 26 -82 43 -59 35 47 49
129 44 249 -4 85 -2 115 6 113 6 -2 121 -79 254 -173 l243 -170 19 -64 c74
-239 34 -475 -119 -699 -88 -129 -205 -231 -356 -308 -158 -82 -302 -115 -490
-115 -258 0 -492 88 -666 249 -100 92 -201 260 -244 404 l-15 50 33 -7 c17 -4
43 -8 57 -9 l25 -1 7 128 c8 140 32 246 74 329 29 57 121 161 136 152 5 -3 29
-45 53 -94 49 -98 60 -109 82 -88 13 13 12 24 -2 89 -9 41 -19 135 -22 209 -7
168 8 233 67 292 69 69 70 67 70 -177z m2763 -110 c1 -33 -2 -79 -6 -102 -8
-39 -7 -43 15 -52 12 -5 79 -30 148 -56 69 -26 191 -79 272 -118 109 -51 151
-67 160 -59 7 6 36 53 63 106 28 53 54 96 59 96 13 0 -3 -135 -24 -202 -22
-70 -33 -55 115 -153 54 -36 106 -64 115 -63 8 2 28 26 43 53 l28 50 -6 -81
-7 -81 32 -23 c28 -20 31 -27 27 -56 -9 -54 -92 -220 -147 -294 -61 -82 -174
-191 -252 -243 -88 -58 -213 -114 -323 -144 -92 -26 -113 -28 -275 -27 -159 0
-184 3 -275 28 -203 56 -375 157 -519 306 -96 100 -138 161 -202 293 -68 143
-96 265 -98 422 0 135 8 193 50 327 l25 77 60 3 61 3 24 60 c34 83 41 85 40
15 -1 -77 8 -85 111 -93 43 -3 136 -15 207 -27 71 -11 133 -17 137 -13 4 4 29
49 54 98 26 50 50 94 54 98 4 4 13 -45 20 -110 7 -65 17 -124 23 -130 6 -7 21
-13 33 -13 26 0 35 19 80 170 15 47 29 92 32 100 9 24 44 -99 46 -165z m1095
102 c62 -62 65 -83 16 -127 l-37 -32 -41 79 c-23 43 -48 88 -56 101 -13 20
-13 24 0 32 26 17 63 0 118 -53z m-2656 -1184 c-16 -21 -40 -47 -53 -58 -13
-11 -1 6 26 38 55 64 73 77 27 20z"/>
<path d="M2588 3836 c-98 -40 -168 -109 -168 -166 0 -21 33 -29 45 -10 17 28
135 74 225 87 52 8 96 16 98 17 1 2 -21 7 -51 10 -35 5 -80 2 -128 -8 -88 -19
-92 -19 -84 -6 10 16 80 58 133 80 43 17 45 19 17 19 -16 0 -56 -10 -87 -23z"/>
<path d="M1485 3601 c11 -5 38 -10 61 -10 22 -1 65 -8 95 -18 l54 -16 -92 -13
c-58 -8 -110 -22 -140 -38 -57 -30 -48 -32 44 -10 66 16 159 15 251 -2 32 -6
33 -5 30 22 -2 22 -15 36 -52 59 -46 28 -56 30 -160 32 -74 2 -104 0 -91 -6z"/>
<path d="M2710 3531 c0 -15 28 -33 48 -29 16 2 14 6 -14 20 -19 10 -34 14 -34
9z"/>
<path d="M2075 3479 c-57 -13 -155 -60 -155 -75 0 -25 18 -23 73 7 66 35 165
58 262 60 54 1 63 3 40 9 -41 10 -171 10 -220 -1z"/>
<path d="M2699 3463 c-13 -16 -12 -17 4 -4 16 13 21 21 13 21 -2 0 -10 -8 -17
-17z"/>
<path d="M2619 3377 c-124 -116 -305 -197 -492 -219 -166 -20 -373 13 -511 82
-42 21 -46 27 -41 50 5 23 4 23 -6 5 -7 -11 -21 -31 -33 -44 l-21 -24 21 11
c18 10 39 5 119 -28 54 -22 134 -50 179 -62 44 -12 135 -41 201 -66 173 -63
198 -58 359 82 45 39 116 98 157 132 60 49 152 146 137 144 -1 -1 -33 -29 -69
-63z"/>
<path d="M3896 4011 c-24 -27 -17 -72 13 -87 30 -16 62 -4 80 28 32 56 -50
107 -93 59z"/>
<path d="M3877 3805 c-52 -18 -75 -41 -88 -87 -15 -56 -4 -92 42 -132 34 -31
46 -36 90 -36 46 0 55 4 90 39 35 35 39 44 39 89 0 43 -5 57 -31 86 -27 32
-41 39 -89 51 -8 2 -32 -2 -53 -10z"/>
<path d="M4372 3652 c-8 -5 -12 -18 -10 -28 3 -14 11 -18 33 -17 29 2 55 -11
55 -28 0 -5 -13 -9 -29 -9 -34 0 -60 -25 -43 -42 16 -16 82 -11 103 8 24 21
24 65 1 94 -19 23 -88 37 -110 22z"/>
<path d="M4917 3602 c-36 -39 -7 -102 45 -102 25 0 58 36 58 63 0 50 -70 76
-103 39z"/>
<path d="M4251 3410 c48 -91 104 -131 163 -116 29 7 118 68 124 84 2 8 -6 8
-30 1 -77 -22 -196 5 -237 55 -8 9 -23 22 -34 27 -16 9 -14 0 14 -51z"/>
<path d="M4763 3420 c-86 -52 -82 -185 7 -232 117 -62 242 61 182 179 -35 68
-123 93 -189 53z"/>
<path d="M562 2054 c-35 -24 -39 -39 -67 -230 -46 -318 -65 -417 -90 -471 -22
-50 -26 -53 -60 -53 -25 0 -43 -8 -60 -25 -23 -22 -25 -32 -25 -110 l0 -85 89
0 c85 0 90 1 93 23 l3 22 340 0 340 0 3 -22 c3 -22 8 -23 88 -23 l84 0 0 88
c0 112 -8 125 -87 132 l-58 5 -5 358 -5 359 -28 24 c-28 24 -28 24 -280 24
-212 0 -256 -2 -275 -16z m396 -456 l-3 -293 -170 -3 c-93 -1 -175 0 -182 2
-10 4 -9 12 1 38 20 48 42 160 66 343 11 88 23 170 27 183 5 21 9 22 134 22
l129 0 -2 -292z"/>
</g>
</svg>
