<svg width="85" height="85" fill="none" xmlns="http://www.w3.org/2000/svg"><path d="M84.506.678H.727v83.78h83.78V.677Z" fill="#fff"/><path d="M3.616.678H.727v2.89h2.89V.677Z" fill="#000"/><path d="M6.505.678H3.616v2.89h2.89V.677Z" fill="#000"/><path d="M9.394.678H6.505v2.89h2.889V.677Zm2.889 0H9.394v2.89h2.889V.677Zm2.889 0h-2.889v2.89h2.889V.677Zm2.888 0h-2.888v2.89h2.889V.677Z" fill="#000"/><path d="M20.95.678h-2.89v2.89h2.89V.677Zm5.777 0H23.84v2.89h2.889V.677Zm5.778 0h-2.888v2.89h2.888V.677Zm5.778 0h-2.889v2.89h2.89V.677Zm5.778 0h-2.889v2.89h2.889V.677Zm2.889 0h-2.889v2.89h2.889V.677Zm2.889 0H46.95v2.89h2.889V.677Zm8.667 0h-2.89v2.89h2.89V.677Z" fill="#000"/><path d="M61.395.678h-2.89v2.89h2.89V.677Zm5.777 0h-2.889v2.89h2.89V.677Z" fill="#000"/><path d="M70.061.678h-2.889v2.89h2.89V.677Z" fill="#000"/><path d="M72.95.678h-2.889v2.89h2.89V.677Z" fill="#000"/><path d="M75.84.678h-2.89v2.89h2.89V.677Zm2.888 0H75.84v2.89h2.89V.677Z" fill="#000"/><path d="M81.617.678h-2.889v2.89h2.89V.677Z" fill="#000"/><path d="M84.506.678h-2.889v2.89h2.889V.677ZM3.616 3.567H.727v2.89h2.89v-2.89Zm17.334 0h-2.89v2.89h2.89v-2.89Zm5.777 0H23.84v2.89h2.889v-2.89Zm14.445 0h-2.889v2.89h2.89v-2.89Zm5.778 0h-2.889v2.89h2.889v-2.89Zm2.889 0H46.95v2.89h2.889v-2.89Z" fill="#000"/><path d="M52.728 3.567h-2.889v2.89h2.889v-2.89Zm5.778 0h-2.89v2.89h2.89v-2.89Zm8.666 0h-2.889v2.89h2.89v-2.89Zm17.334 0h-2.889v2.89h2.889v-2.89ZM3.616 6.456H.727v2.89h2.89v-2.89Zm5.778 0H6.505v2.89h2.889v-2.89Zm2.889 0H9.394v2.89h2.889v-2.89Zm2.889 0h-2.889v2.89h2.889v-2.89Zm5.778 0h-2.89v2.89h2.89v-2.89Zm5.777 0H23.84v2.89h2.889v-2.89Z" fill="#000"/><path d="M29.616 6.456h-2.889v2.89h2.89v-2.89Zm5.778 0h-2.889v2.89h2.89v-2.89Zm5.778 0h-2.889v2.89h2.89v-2.89Zm11.556 0h-2.889v2.89h2.889v-2.89Z" fill="#000"/><path d="M55.617 6.456h-2.89v2.89h2.89v-2.89Z" fill="#000"/><path d="M58.506 6.456h-2.89v2.89h2.89v-2.89Zm8.666 0h-2.889v2.89h2.89v-2.89Zm5.778 0h-2.889v2.89h2.89v-2.89Z" fill="#000"/><path d="M75.84 6.456h-2.89v2.89h2.89v-2.89Zm2.888 0H75.84v2.89h2.89v-2.89Zm5.778 0h-2.889v2.89h2.889v-2.89ZM3.616 9.345H.727v2.889h2.89V9.345Zm5.778 0H6.505v2.889h2.889V9.345Zm2.889 0H9.394v2.889h2.889V9.345Zm2.889 0h-2.889v2.889h2.889V9.345Zm5.778 0h-2.89v2.889h2.89V9.345Zm8.666 0h-2.889v2.889h2.89V9.345Zm11.556 0h-2.889v2.889h2.89V9.345Z" fill="#000"/><path d="M44.061 9.345h-2.889v2.889h2.889V9.345Zm2.889 0h-2.889v2.889h2.889V9.345Zm2.889 0H46.95v2.889h2.889V9.345Z" fill="#000"/><path d="M52.728 9.345h-2.889v2.889h2.889V9.345Zm14.444 0h-2.889v2.889h2.89V9.345Zm5.778 0h-2.889v2.889h2.89V9.345Z" fill="#000"/><path d="M75.84 9.345h-2.89v2.889h2.89V9.345Zm2.888 0H75.84v2.889h2.89V9.345Zm5.778 0h-2.889v2.889h2.889V9.345Zm-80.89 2.889H.727v2.889h2.89v-2.889Zm5.778 0H6.505v2.889h2.889v-2.889Zm2.889 0H9.394v2.889h2.889v-2.889Zm2.889 0h-2.889v2.889h2.889v-2.889Zm5.778 0h-2.89v2.889h2.89v-2.889Zm8.666 0h-2.889v2.889h2.89v-2.889Zm8.667 0h-2.889v2.889h2.89v-2.889Z" fill="#000"/><path d="M41.172 12.234h-2.889v2.889h2.89v-2.889Z" fill="#000"/><path d="M44.061 12.234h-2.889v2.889h2.889v-2.889Zm5.778 0H46.95v2.889h2.889v-2.889Zm11.556 0h-2.89v2.889h2.89v-2.889Zm5.777 0h-2.889v2.889h2.89v-2.889Zm5.778 0h-2.889v2.889h2.89v-2.889Z" fill="#000"/><path d="M75.84 12.234h-2.89v2.889h2.89v-2.889Zm2.888 0H75.84v2.889h2.89v-2.889Zm5.778 0h-2.889v2.889h2.889v-2.889Zm-80.89 2.889H.727v2.889h2.89v-2.89Zm17.334 0h-2.89v2.889h2.89v-2.89Zm5.777 0H23.84v2.889h2.889v-2.89Zm5.778 0h-2.888v2.889h2.888v-2.89Z" fill="#000"/><path d="M35.394 15.123h-2.889v2.889h2.89v-2.89Z" fill="#000"/><path d="M38.283 15.123h-2.889v2.889h2.89v-2.89Z" fill="#000"/><path d="M41.172 15.123h-2.889v2.889h2.89v-2.89Z" fill="#000"/><path d="M44.061 15.123h-2.889v2.889h2.889v-2.89Zm2.889 0h-2.889v2.889h2.889v-2.89Zm8.667 0h-2.89v2.889h2.89v-2.89Zm11.555 0h-2.889v2.889h2.89v-2.89Zm17.334 0h-2.889v2.889h2.889v-2.89Zm-80.89 2.889H.727V20.9h2.89v-2.89Z" fill="#000"/><path d="M6.505 18.012H3.616V20.9h2.89v-2.89Z" fill="#000"/><path d="M9.394 18.012H6.505V20.9h2.889v-2.89Zm2.889 0H9.394V20.9h2.889v-2.89Zm2.889 0h-2.889V20.9h2.889v-2.89Zm2.888 0h-2.888V20.9h2.889v-2.89Z" fill="#000"/><path d="M20.95 18.012h-2.89V20.9h2.89v-2.89Zm5.777 0H23.84V20.9h2.889v-2.89Zm5.778 0h-2.888V20.9h2.888v-2.89Zm5.778 0h-2.889V20.9h2.89v-2.89Zm5.778 0h-2.889V20.9h2.889v-2.89Zm5.778 0H46.95V20.9h2.889v-2.89Zm5.778 0h-2.89V20.9h2.89v-2.89Zm5.778 0h-2.89V20.9h2.89v-2.89Zm5.777 0h-2.889V20.9h2.89v-2.89Z" fill="#000"/><path d="M70.061 18.012h-2.889V20.9h2.89v-2.89Z" fill="#000"/><path d="M72.95 18.012h-2.889V20.9h2.89v-2.89Z" fill="#000"/><path d="M75.84 18.012h-2.89V20.9h2.89v-2.89Zm2.888 0H75.84V20.9h2.89v-2.89Z" fill="#000"/><path d="M81.617 18.012h-2.889V20.9h2.89v-2.89Z" fill="#000"/><path d="M84.506 18.012h-2.889V20.9h2.889v-2.89ZM26.727 20.9H23.84v2.89h2.889V20.9Z" fill="#000"/><path d="M29.616 20.9h-2.889v2.89h2.89V20.9Zm5.778 0h-2.889v2.89h2.89V20.9Zm5.778 0h-2.889v2.89h2.89V20.9Z" fill="#000"/><path d="M44.061 20.9h-2.889v2.89h2.889V20.9Zm2.889 0h-2.889v2.89h2.889V20.9Zm8.667 0h-2.89v2.89h2.89V20.9Z" fill="#000"/><path d="M58.506 20.9h-2.89v2.89h2.89V20.9Z" fill="#000"/><path d="M61.395 20.9h-2.89v2.89h2.89V20.9ZM9.394 23.79H6.505v2.889h2.889v-2.89Zm2.889 0H9.394v2.889h2.889v-2.89Zm2.889 0h-2.889v2.889h2.889v-2.89Zm5.778 0h-2.89v2.889h2.89v-2.89Zm5.777 0H23.84v2.889h2.889v-2.89Zm5.778 0h-2.888v2.889h2.888v-2.89Z" fill="#000"/><path d="M35.394 23.79h-2.889v2.889h2.89v-2.89Z" fill="#000"/><path d="M38.283 23.79h-2.889v2.889h2.89v-2.89Zm5.778 0h-2.889v2.889h2.889v-2.89Zm2.889 0h-2.889v2.889h2.889v-2.89Zm8.667 0h-2.89v2.889h2.89v-2.89Zm5.778 0h-2.89v2.889h2.89v-2.89Z" fill="#000"/><path d="M64.284 23.79h-2.89v2.889h2.89v-2.89Z" fill="#000"/><path d="M67.172 23.79h-2.889v2.889h2.89v-2.89Z" fill="#000"/><path d="M70.061 23.79h-2.889v2.889h2.89v-2.89Zm8.667 0H75.84v2.889h2.89v-2.89Z" fill="#000"/><path d="M81.617 23.79h-2.889v2.889h2.89v-2.89Z" fill="#000"/><path d="M84.506 23.79h-2.889v2.889h2.889v-2.89Zm-80.89 2.889H.727v2.889h2.89v-2.89Z" fill="#000"/><path d="M6.505 26.679H3.616v2.889h2.89v-2.89Zm8.667 0h-2.889v2.889h2.889v-2.89Z" fill="#000"/><path d="M18.06 26.679h-2.888v2.889h2.889v-2.89Zm14.445 0h-2.888v2.889h2.888v-2.89Zm5.778 0h-2.889v2.889h2.89v-2.89Z" fill="#000"/><path d="M41.172 26.679h-2.889v2.889h2.89v-2.89Z" fill="#000"/><path d="M44.061 26.679h-2.889v2.889h2.889v-2.89Zm11.556 0h-2.89v2.889h2.89v-2.89Zm5.778 0h-2.89v2.889h2.89v-2.89Zm11.555 0h-2.889v2.889h2.89v-2.89Z" fill="#000"/><path d="M75.84 26.679h-2.89v2.889h2.89v-2.89Zm5.777 0h-2.889v2.889h2.89v-2.89Z" fill="#000"/><path d="M84.506 26.679h-2.889v2.889h2.889v-2.89Zm-80.89 2.889H.727v2.888h2.89v-2.888Zm8.667 0H9.394v2.888h2.889v-2.888Zm5.777 0h-2.888v2.888h2.889v-2.888Z" fill="#000"/><path d="M20.95 29.568h-2.89v2.888h2.89v-2.888Zm5.777 0H23.84v2.888h2.889v-2.888Zm5.778 0h-2.888v2.888h2.888v-2.888Z" fill="#000"/><path d="M35.394 29.568h-2.889v2.888h2.89v-2.888Z" fill="#000"/><path d="M38.283 29.568h-2.889v2.888h2.89v-2.888Z" fill="#000"/><path d="M41.172 29.568h-2.889v2.888h2.89v-2.888Zm5.778 0h-2.889v2.888h2.889v-2.888Zm5.778 0h-2.889v2.888h2.889v-2.888Zm5.778 0h-2.89v2.888h2.89v-2.888Zm17.334 0h-2.89v2.888h2.89v-2.888Zm2.888 0H75.84v2.888h2.89v-2.888ZM6.505 32.456H3.616v2.89h2.89v-2.89Z" fill="#000"/><path d="M9.394 32.456H6.505v2.89h2.889v-2.89Zm2.889 0H9.394v2.89h2.889v-2.89Zm2.889 0h-2.889v2.89h2.889v-2.89Zm14.444 0h-2.889v2.89h2.89v-2.89Zm2.889 0h-2.888v2.89h2.888v-2.89Z" fill="#000"/><path d="M35.394 32.456h-2.889v2.89h2.89v-2.89Z" fill="#000"/><path d="M38.283 32.456h-2.889v2.89h2.89v-2.89Z" fill="#000"/><path d="M41.172 32.456h-2.889v2.89h2.89v-2.89Z" fill="#000"/><path d="M44.061 32.456h-2.889v2.89h2.889v-2.89Zm5.778 0H46.95v2.89h2.889v-2.89Z" fill="#000"/><path d="M52.728 32.456h-2.889v2.89h2.889v-2.89Zm5.778 0h-2.89v2.89h2.89v-2.89Z" fill="#000"/><path d="M61.395 32.456h-2.89v2.89h2.89v-2.89Zm5.777 0h-2.889v2.89h2.89v-2.89Z" fill="#000"/><path d="M70.061 32.456h-2.889v2.89h2.89v-2.89Z" fill="#000"/><path d="M72.95 32.456h-2.889v2.89h2.89v-2.89Z" fill="#000"/><path d="M75.84 32.456h-2.89v2.89h2.89v-2.89ZM6.505 35.345H3.616v2.89h2.89v-2.89Zm5.778 0H9.394v2.89h2.889v-2.89Zm5.777 0h-2.888v2.89h2.889v-2.89Z" fill="#000"/><path d="M20.95 35.345h-2.89v2.89h2.89v-2.89Z" fill="#000"/><path d="M23.839 35.345h-2.89v2.89h2.89v-2.89Zm2.888 0H23.84v2.89h2.889v-2.89Z" fill="#000"/><path d="M29.616 35.345h-2.889v2.89h2.89v-2.89Zm5.778 0h-2.889v2.89h2.89v-2.89Zm5.778 0h-2.889v2.89h2.89v-2.89Zm8.667 0H46.95v2.89h2.889v-2.89Zm5.778 0h-2.89v2.89h2.89v-2.89Zm5.778 0h-2.89v2.89h2.89v-2.89Z" fill="#000"/><path d="M64.284 35.345h-2.89v2.89h2.89v-2.89Zm8.666 0h-2.889v2.89h2.89v-2.89Zm5.778 0H75.84v2.89h2.89v-2.89Z" fill="#000"/><path d="M81.617 35.345h-2.889v2.89h2.89v-2.89ZM3.616 38.234H.727v2.89h2.89v-2.89Z" fill="#000"/><path d="M6.505 38.234H3.616v2.89h2.89v-2.89Z" fill="#000"/><path d="M9.394 38.234H6.505v2.89h2.889v-2.89Zm5.778 0h-2.889v2.89h2.889v-2.89Z" fill="#000"/><path d="M18.06 38.234h-2.888v2.89h2.889v-2.89Zm5.779 0h-2.89v2.89h2.89v-2.89Zm2.888 0H23.84v2.89h2.889v-2.89Zm8.667 0h-2.889v2.89h2.89v-2.89Zm8.667 0h-2.889v2.89h2.889v-2.89Zm5.778 0H46.95v2.89h2.889v-2.89Z" fill="#000"/><path d="M52.728 38.234h-2.889v2.89h2.889v-2.89Z" fill="#000"/><path d="M55.617 38.234h-2.89v2.89h2.89v-2.89Z" fill="#000"/><path d="M58.506 38.234h-2.89v2.89h2.89v-2.89Z" fill="#000"/><path d="M61.395 38.234h-2.89v2.89h2.89v-2.89Zm5.777 0h-2.889v2.89h2.89v-2.89Zm5.778 0h-2.889v2.89h2.89v-2.89Z" fill="#000"/><path d="M75.84 38.234h-2.89v2.89h2.89v-2.89Zm8.666 0h-2.889v2.89h2.889v-2.89ZM9.394 41.123H6.505v2.89h2.889v-2.89Zm5.778 0h-2.889v2.89h2.889v-2.89Zm5.778 0h-2.89v2.89h2.89v-2.89Z" fill="#000"/><path d="M23.839 41.123h-2.89v2.89h2.89v-2.89Zm2.888 0H23.84v2.89h2.889v-2.89Zm5.778 0h-2.888v2.89h2.888v-2.89Zm2.889 0h-2.889v2.89h2.89v-2.89Z" fill="#000"/><path d="M38.283 41.123h-2.889v2.89h2.89v-2.89Z" fill="#000"/><path d="M41.172 41.123h-2.889v2.89h2.89v-2.89Zm5.778 0h-2.889v2.89h2.889v-2.89Zm2.889 0H46.95v2.89h2.889v-2.89Z" fill="#000"/><path d="M52.728 41.123h-2.889v2.89h2.889v-2.89Z" fill="#000"/><path d="M55.617 41.123h-2.89v2.89h2.89v-2.89Z" fill="#000"/><path d="M58.506 41.123h-2.89v2.89h2.89v-2.89Zm5.778 0h-2.89v2.89h2.89v-2.89Zm5.777 0h-2.889v2.89h2.89v-2.89Zm8.667 0H75.84v2.89h2.89v-2.89Zm5.778 0h-2.889v2.89h2.889v-2.89ZM6.505 44.012H3.616v2.89h2.89v-2.89Z" fill="#000"/><path d="M9.394 44.012H6.505v2.89h2.889v-2.89Zm2.889 0H9.394v2.89h2.889v-2.89Zm11.556 0h-2.89v2.89h2.89v-2.89Zm2.888 0H23.84v2.89h2.889v-2.89Z" fill="#000"/><path d="M29.616 44.012h-2.889v2.89h2.89v-2.89Zm17.334 0h-2.889v2.89h2.889v-2.89Zm2.889 0H46.95v2.89h2.889v-2.89Zm8.667 0h-2.89v2.89h2.89v-2.89Zm5.778 0h-2.89v2.89h2.89v-2.89Z" fill="#000"/><path d="M67.172 44.012h-2.889v2.89h2.89v-2.89Z" fill="#000"/><path d="M70.061 44.012h-2.889v2.89h2.89v-2.89Z" fill="#000"/><path d="M72.95 44.012h-2.889v2.89h2.89v-2.89Zm5.778 0H75.84v2.89h2.89v-2.89Z" fill="#000"/><path d="M81.617 44.012h-2.889v2.89h2.89v-2.89Z" fill="#000"/><path d="M84.506 44.012h-2.889v2.89h2.889v-2.89Zm-80.89 2.889H.727v2.889h2.89v-2.889Z" fill="#000"/><path d="M6.505 46.901H3.616v2.889h2.89v-2.889Zm8.667 0h-2.889v2.889h2.889v-2.889Z" fill="#000"/><path d="M18.06 46.901h-2.888v2.889h2.889v-2.889Z" fill="#000"/><path d="M20.95 46.901h-2.89v2.889h2.89v-2.889Z" fill="#000"/><path d="M23.839 46.901h-2.89v2.889h2.89v-2.889Zm5.777 0h-2.889v2.889h2.89v-2.889Zm5.778 0h-2.889v2.889h2.89v-2.889Z" fill="#000"/><path d="M38.283 46.901h-2.889v2.889h2.89v-2.889Zm8.667 0h-2.889v2.889h2.889v-2.889Zm8.667 0h-2.89v2.889h2.89v-2.889Zm5.778 0h-2.89v2.889h2.89v-2.889Zm5.777 0h-2.889v2.889h2.89v-2.889Zm5.778 0h-2.889v2.889h2.89v-2.889ZM3.616 49.79H.727v2.889h2.89V49.79Zm14.444 0h-2.888v2.889h2.889V49.79Zm5.779 0h-2.89v2.889h2.89V49.79Zm5.777 0h-2.889v2.889h2.89V49.79Z" fill="#000"/><path d="M38.283 49.79h-2.889v2.889h2.89V49.79Z" fill="#000"/><path d="M41.172 49.79h-2.889v2.889h2.89V49.79Z" fill="#000"/><path d="M44.061 49.79h-2.889v2.889h2.889V49.79Zm8.667 0h-2.889v2.889h2.889V49.79Zm5.778 0h-2.89v2.889h2.89V49.79Z" fill="#000"/><path d="M61.395 49.79h-2.89v2.889h2.89V49.79Z" fill="#000"/><path d="M64.284 49.79h-2.89v2.889h2.89V49.79Z" fill="#000"/><path d="M67.172 49.79h-2.889v2.889h2.89V49.79Z" fill="#000"/><path d="M70.061 49.79h-2.889v2.889h2.89V49.79Z" fill="#000"/><path d="M72.95 49.79h-2.889v2.889h2.89V49.79Z" fill="#000"/><path d="M75.84 49.79h-2.89v2.889h2.89V49.79Zm5.777 0h-2.889v2.889h2.89V49.79ZM3.616 52.679H.727v2.889h2.89v-2.89Zm5.778 0H6.505v2.889h2.889v-2.89Zm2.889 0H9.394v2.889h2.889v-2.89Zm8.667 0h-2.89v2.889h2.89v-2.89Z" fill="#000"/><path d="M23.839 52.679h-2.89v2.889h2.89v-2.89Zm5.777 0h-2.889v2.889h2.89v-2.89Zm2.889 0h-2.888v2.889h2.888v-2.89Zm11.556 0h-2.889v2.889h2.889v-2.89Zm2.889 0h-2.889v2.889h2.889v-2.89Zm2.889 0H46.95v2.889h2.889v-2.89Z" fill="#000"/><path d="M52.728 52.679h-2.889v2.889h2.889v-2.89Z" fill="#000"/><path d="M55.617 52.679h-2.89v2.889h2.89v-2.89Z" fill="#000"/><path d="M58.506 52.679h-2.89v2.889h2.89v-2.89Zm5.778 0h-2.89v2.889h2.89v-2.89Zm5.777 0h-2.889v2.889h2.89v-2.89Zm5.779 0h-2.89v2.889h2.89v-2.89Zm2.888 0H75.84v2.889h2.89v-2.89ZM3.616 55.568H.727v2.889h2.89v-2.89Zm11.556 0h-2.889v2.889h2.889v-2.89Zm2.888 0h-2.888v2.889h2.889v-2.89Zm17.334 0h-2.889v2.889h2.89v-2.89Z" fill="#000"/><path d="M38.283 55.568h-2.889v2.889h2.89v-2.89Z" fill="#000"/><path d="M41.172 55.568h-2.889v2.889h2.89v-2.89Z" fill="#000"/><path d="M44.061 55.568h-2.889v2.889h2.889v-2.89Zm2.889 0h-2.889v2.889h2.889v-2.89Zm11.556 0h-2.89v2.889h2.89v-2.89Z" fill="#000"/><path d="M61.395 55.568h-2.89v2.889h2.89v-2.89Zm5.777 0h-2.889v2.889h2.89v-2.89Z" fill="#000"/><path d="M70.061 55.568h-2.889v2.889h2.89v-2.89Z" fill="#000"/><path d="M72.95 55.568h-2.889v2.889h2.89v-2.89Zm5.778 0H75.84v2.889h2.89v-2.89Z" fill="#000"/><path d="M81.617 55.568h-2.889v2.889h2.89v-2.89Z" fill="#000"/><path d="M84.506 55.568h-2.889v2.889h2.889v-2.89Zm-80.89 2.889H.727v2.889h2.89v-2.89Zm5.778 0H6.505v2.889h2.889v-2.89Zm8.666 0h-2.888v2.889h2.889v-2.89Z" fill="#000"/><path d="M20.95 58.457h-2.89v2.889h2.89v-2.89Z" fill="#000"/><path d="M23.839 58.457h-2.89v2.889h2.89v-2.89Zm2.888 0H23.84v2.889h2.889v-2.89Z" fill="#000"/><path d="M29.616 58.457h-2.889v2.889h2.89v-2.89Zm2.889 0h-2.888v2.889h2.888v-2.89Z" fill="#000"/><path d="M35.394 58.457h-2.889v2.889h2.89v-2.89Z" fill="#000"/><path d="M38.283 58.457h-2.889v2.889h2.89v-2.89Zm5.778 0h-2.889v2.889h2.889v-2.89Zm2.889 0h-2.889v2.889h2.889v-2.89Zm5.778 0h-2.889v2.889h2.889v-2.89Z" fill="#000"/><path d="M55.617 58.457h-2.89v2.889h2.89v-2.89Zm5.778 0h-2.89v2.889h2.89v-2.89Z" fill="#000"/><path d="M64.284 58.457h-2.89v2.889h2.89v-2.89Z" fill="#000"/><path d="M67.172 58.457h-2.889v2.889h2.89v-2.89Z" fill="#000"/><path d="M70.061 58.457h-2.889v2.889h2.89v-2.89Z" fill="#000"/><path d="M72.95 58.457h-2.889v2.889h2.89v-2.89Z" fill="#000"/><path d="M75.84 58.457h-2.89v2.889h2.89v-2.89Zm5.777 0h-2.889v2.889h2.89v-2.89Z" fill="#000"/><path d="M84.506 58.457h-2.889v2.889h2.889v-2.89Zm-57.779 2.889H23.84v2.889h2.889v-2.89Z" fill="#000"/><path d="M29.616 61.346h-2.889v2.889h2.89v-2.89Zm2.889 0h-2.888v2.889h2.888v-2.89Z" fill="#000"/><path d="M35.394 61.346h-2.889v2.889h2.89v-2.89Z" fill="#000"/><path d="M38.283 61.346h-2.889v2.889h2.89v-2.89Zm5.778 0h-2.889v2.889h2.889v-2.89Zm2.889 0h-2.889v2.889h2.889v-2.89Zm11.556 0h-2.89v2.889h2.89v-2.89Z" fill="#000"/><path d="M61.395 61.346h-2.89v2.889h2.89v-2.89Zm11.555 0h-2.889v2.889h2.89v-2.89Z" fill="#000"/><path d="M75.84 61.346h-2.89v2.889h2.89v-2.89ZM3.616 64.235H.727v2.889h2.89v-2.89Z" fill="#000"/><path d="M6.505 64.235H3.616v2.889h2.89v-2.89Z" fill="#000"/><path d="M9.394 64.235H6.505v2.889h2.889v-2.89Zm2.889 0H9.394v2.889h2.889v-2.89Zm2.889 0h-2.889v2.889h2.889v-2.89Zm2.888 0h-2.888v2.889h2.889v-2.89Z" fill="#000"/><path d="M20.95 64.235h-2.89v2.889h2.89v-2.89Zm11.555 0h-2.888v2.889h2.888v-2.89Zm2.889 0h-2.889v2.889h2.89v-2.89Zm5.778 0h-2.889v2.889h2.89v-2.89Zm5.778 0h-2.889v2.889h2.889v-2.89Zm8.667 0h-2.89v2.889h2.89v-2.89Z" fill="#000"/><path d="M58.506 64.235h-2.89v2.889h2.89v-2.89Z" fill="#000"/><path d="M61.395 64.235h-2.89v2.889h2.89v-2.89Zm5.777 0h-2.889v2.889h2.89v-2.89Zm5.778 0h-2.889v2.889h2.89v-2.89Z" fill="#000"/><path d="M75.84 64.235h-2.89v2.889h2.89v-2.89Zm2.888 0H75.84v2.889h2.89v-2.89Zm5.778 0h-2.889v2.889h2.889v-2.89Zm-80.89 2.889H.727v2.889h2.89v-2.89Zm17.334 0h-2.89v2.889h2.89v-2.89Zm8.666 0h-2.889v2.889h2.89v-2.89Zm2.889 0h-2.888v2.889h2.888v-2.89Z" fill="#000"/><path d="M35.394 67.124h-2.889v2.889h2.89v-2.89Z" fill="#000"/><path d="M38.283 67.124h-2.889v2.889h2.89v-2.89Z" fill="#000"/><path d="M41.172 67.124h-2.889v2.889h2.89v-2.89Z" fill="#000"/><path d="M44.061 67.124h-2.889v2.889h2.889v-2.89Zm2.889 0h-2.889v2.889h2.889v-2.89Zm5.778 0h-2.889v2.889h2.889v-2.89Z" fill="#000"/><path d="M55.617 67.124h-2.89v2.889h2.89v-2.89Z" fill="#000"/><path d="M58.506 67.124h-2.89v2.889h2.89v-2.89Z" fill="#000"/><path d="M61.395 67.124h-2.89v2.889h2.89v-2.89Zm11.555 0h-2.889v2.889h2.89v-2.89Z" fill="#000"/><path d="M75.84 67.124h-2.89v2.889h2.89v-2.89Zm5.777 0h-2.889v2.889h2.89v-2.89Z" fill="#000"/><path d="M84.506 67.124h-2.889v2.889h2.889v-2.89Zm-80.89 2.889H.727V72.9h2.89v-2.888Zm5.778 0H6.505V72.9h2.889v-2.888Zm2.889 0H9.394V72.9h2.889v-2.888Zm2.889 0h-2.889V72.9h2.889v-2.888Zm5.778 0h-2.89V72.9h2.89v-2.888Zm5.777 0H23.84V72.9h2.889v-2.888Zm8.667 0h-2.889V72.9h2.89v-2.888Zm8.667 0h-2.889V72.9h2.889v-2.888Zm2.889 0h-2.889V72.9h2.889v-2.888Zm5.778 0h-2.889V72.9h2.889v-2.888Zm5.778 0h-2.89V72.9h2.89v-2.888Z" fill="#000"/><path d="M61.395 70.013h-2.89V72.9h2.89v-2.888Z" fill="#000"/><path d="M64.284 70.013h-2.89V72.9h2.89v-2.888Z" fill="#000"/><path d="M67.172 70.013h-2.889V72.9h2.89v-2.888Z" fill="#000"/><path d="M70.061 70.013h-2.889V72.9h2.89v-2.888Z" fill="#000"/><path d="M72.95 70.013h-2.889V72.9h2.89v-2.888ZM3.616 72.901H.727v2.89h2.89V72.9Zm5.778 0H6.505v2.89h2.889V72.9Zm2.889 0H9.394v2.89h2.889V72.9Zm2.889 0h-2.889v2.89h2.889V72.9Zm5.778 0h-2.89v2.89h2.89V72.9Zm5.777 0H23.84v2.89h2.889V72.9Zm8.667 0h-2.889v2.89h2.89V72.9Zm5.778 0h-2.889v2.89h2.89V72.9Z" fill="#000"/><path d="M44.061 72.901h-2.889v2.89h2.889V72.9Zm2.889 0h-2.889v2.89h2.889V72.9Zm5.778 0h-2.889v2.89h2.889V72.9Zm8.667 0h-2.89v2.89h2.89V72.9Z" fill="#000"/><path d="M64.284 72.901h-2.89v2.89h2.89V72.9Z" fill="#000"/><path d="M67.172 72.901h-2.889v2.89h2.89V72.9Zm5.778 0h-2.889v2.89h2.89V72.9Z" fill="#000"/><path d="M75.84 72.901h-2.89v2.89h2.89V72.9ZM3.616 75.79H.727v2.89h2.89v-2.89Zm5.778 0H6.505v2.89h2.889v-2.89Zm2.889 0H9.394v2.89h2.889v-2.89Zm2.889 0h-2.889v2.89h2.889v-2.89Zm5.778 0h-2.89v2.89h2.89v-2.89Zm5.777 0H23.84v2.89h2.889v-2.89Z" fill="#000"/><path d="M29.616 75.79h-2.889v2.89h2.89v-2.89Zm5.778 0h-2.889v2.89h2.89v-2.89Z" fill="#000"/><path d="M38.283 75.79h-2.889v2.89h2.89v-2.89Zm11.556 0H46.95v2.89h2.889v-2.89Zm14.445 0h-2.89v2.89h2.89v-2.89Z" fill="#000"/><path d="M67.172 75.79h-2.889v2.89h2.89v-2.89Z" fill="#000"/><path d="M70.061 75.79h-2.889v2.89h2.89v-2.89Z" fill="#000"/><path d="M72.95 75.79h-2.889v2.89h2.89v-2.89Zm5.778 0H75.84v2.89h2.89v-2.89Z" fill="#000"/><path d="M81.617 75.79h-2.889v2.89h2.89v-2.89ZM3.616 78.68H.727v2.888h2.89V78.68Zm17.334 0h-2.89v2.888h2.89V78.68Zm11.555 0h-2.888v2.888h2.888V78.68Zm5.778 0h-2.889v2.888h2.89V78.68Z" fill="#000"/><path d="M41.172 78.68h-2.889v2.888h2.89V78.68Zm8.667 0H46.95v2.888h2.889V78.68Zm8.667 0h-2.89v2.888h2.89V78.68Z" fill="#000"/><path d="M61.395 78.68h-2.89v2.888h2.89V78.68Zm8.666 0h-2.889v2.888h2.89V78.68Zm14.445 0h-2.889v2.888h2.889V78.68Zm-80.89 2.888H.727v2.89h2.89v-2.89Z" fill="#000"/><path d="M6.505 81.568H3.616v2.89h2.89v-2.89Z" fill="#000"/><path d="M9.394 81.568H6.505v2.89h2.889v-2.89Zm2.889 0H9.394v2.89h2.889v-2.89Zm2.889 0h-2.889v2.89h2.889v-2.89Zm2.888 0h-2.888v2.89h2.889v-2.89Z" fill="#000"/><path d="M20.95 81.568h-2.89v2.89h2.89v-2.89Zm20.222 0h-2.889v2.89h2.89v-2.89Z" fill="#000"/><path d="M44.061 81.568h-2.889v2.89h2.889v-2.89Zm2.889 0h-2.889v2.89h2.889v-2.89Zm8.667 0h-2.89v2.89h2.89v-2.89Zm8.667 0h-2.89v2.89h2.89v-2.89Z" fill="#000"/><path d="M67.172 81.568h-2.889v2.89h2.89v-2.89Z" fill="#000"/><path d="M70.061 81.568h-2.889v2.89h2.89v-2.89Z" fill="#000"/><path d="M72.95 81.568h-2.889v2.89h2.89v-2.89Z" fill="#000"/><path d="M75.84 81.568h-2.89v2.89h2.89v-2.89Z" fill="#000"/></svg>