<svg width="24" height="24" fill="none" xmlns="http://www.w3.org/2000/svg"><path d="M18.457 23.995c-1.169-.045-2.365-.393-3.52-.89-2.615-1.126-4.881-2.776-6.98-4.674C5.58 16.279 3.5 13.875 1.9 11.086.965 9.449.213 7.74.027 5.838-.095 4.58.177 3.46 1.16 2.569c.635-.578 1.22-1.211 1.831-1.812C4.006-.233 5.411-.26 6.435.725A183.031 183.031 0 0 1 9.69 3.966a2.251 2.251 0 0 1-.784 3.725c-1.369.506-1.83 1.582-1.373 2.974.358 1.085.997 2.007 1.754 2.853 1.074 1.197 2.293 2.21 3.802 2.83.598.243 1.205.33 1.826.103.707-.258 1.15-.755 1.427-1.45.372-.946 1.224-1.465 2.216-1.398a2.159 2.159 0 0 1 1.423.638c1.124 1.107 2.257 2.21 3.35 3.345.914.949.887 2.355-.046 3.331a85.434 85.434 0 0 1-2.225 2.22c-.694.673-1.573.858-2.606.863l.005-.005Z" fill="#F15A24"/></svg>