<svg width="50" height="44" fill="none" xmlns="http://www.w3.org/2000/svg"><path d="M8.67 38.07H2.522c-.39 0-.78 0-1.17-.03-.607-.048-1.029-.376-1.25-.943-.224-.578-.072-1.091.34-1.525.493-.517 1.04-.988 1.504-1.529 2.701-3.146 4.35-6.835 5.47-10.782.928-3.27 1.37-6.616 1.373-10.018.002-2.799-.002-5.597.002-8.396.002-1.437.484-1.925 1.934-1.933 1.92-.012 3.839-.004 5.758-.004h1.2c0-.549-.028-.994.005-1.435.073-.928.66-1.49 1.492-1.469.791.022 1.33.567 1.416 1.45.022.226.004.454.018.683.014.218.043.437.07.71h7.193c.017-.308.076-.597.043-.876-.147-1.264.617-1.99 1.5-1.973 1.01.022 1.591.906 1.448 1.92-.038.281-.005.574-.005.922h7.417c0-.303.035-.617-.006-.92C38.13.883 38.735.02 39.72 0c.9-.017 1.65.727 1.498 1.967-.031.252-.004.513-.004.88.39.022.73.057 1.07.057 1.887.006 3.775-.002 5.662.004C49.54 2.914 50 3.363 50 4.918v36.997c0 1.522-.46 2.008-1.959 2.008-12.43.006-24.86.006-37.29 0-1.498 0-1.953-.486-1.959-2.01-.004-1.171-.008-2.343-.016-3.513 0-.06-.037-.121-.105-.332l-.002.002Zm38.37-23.363H11.717c-.383 7.414-2.278 14.27-6.843 20.373.48.022.792.047 1.105.047 10.735.002 21.472-.008 32.207.02.768 0 1.267-.256 1.752-.809 1.908-2.174 3.35-4.625 4.462-7.284 1.635-3.912 2.441-7.997 2.638-12.348v.002Zm-16.178-8.83c0 .45.006.802 0 1.154-.024 1.066-.567 1.712-1.445 1.726-.883.012-1.46-.639-1.487-1.683-.01-.381 0-.762 0-1.162h-7.268c-.022.506-.024.955-.065 1.398-.082.88-.629 1.426-1.421 1.443-.83.018-1.414-.547-1.485-1.478-.033-.442-.005-.887-.005-1.37h-5.912v5.72H47.01V5.932h-5.798c0 .309-.02.533.004.756.166 1.54-.754 2.082-1.494 2.068-.834-.016-1.601-.695-1.45-2.02.032-.27-.03-.556-.052-.856h-7.356l-.002-.002ZM47.034 28.77l-.153-.01c-.138.291-.273.584-.416.873-1.296 2.639-2.87 5.09-4.874 7.26-.781.847-1.646 1.204-2.826 1.198-8.587-.043-17.172-.023-25.759-.023h-1.222v2.838h35.25V28.768v.002Z" fill="#74C043"/></svg>