<svg width="12" height="20" fill="none" xmlns="http://www.w3.org/2000/svg"><path d="M11.987 10.012c0 2.77-.028 5.543.013 8.313.018 1.188-.752 1.687-1.722 1.675-2.878-.036-5.756-.012-8.63-.015-.228 0-.464-.01-.675-.075-.563-.175-.892-.56-.957-1.134-.019-.154-.016-.313-.016-.47V1.679c0-.144 0-.286.013-.43C.065.59.569.084 1.246.01 1.34 0 1.433 0 1.53 0h8.914c.133 0 .27 0 .4.024.644.117 1.091.61 1.135 1.245.012.157.01.313.01.47v8.273ZM.992 17.465h9.998V2.177c-.538-.084-9.719-.06-9.998.027v15.26Zm5.7 1.154c-.01-.364-.336-.664-.71-.658-.375.009-.69.322-.68.682.01.37.323.656.709.65.382-.006.69-.313.684-.677l-.004.003ZM5.994 1.305c.417 0 .833.006 1.247 0 .146 0 .376.051.36-.183-.012-.193-.224-.145-.36-.145-.833-.006-1.663-.003-2.496 0a.944.944 0 0 0-.277.037c-.04.012-.09.075-.087.11.006.055.044.133.09.151a.76.76 0 0 0 .274.036c.416.003.833 0 1.246 0l.003-.006Z" fill="#000"/></svg>