<svg width="19" height="20" fill="none" xmlns="http://www.w3.org/2000/svg"><path d="M12.79 19.918c-1.454-.021-2.906-.558-4.263-1.387-1.78-1.085-3.248-2.526-4.592-4.095-1.247-1.45-2.346-2.999-3.113-4.76-.569-1.31-.901-2.672-.806-4.113.108-1.677.77-3.1 2.016-4.236a26.32 26.32 0 0 1 1.037-.88c.758-.62 1.402-.596 2.1.08.158.153.311.315.437.492.617.863 1.243 1.725 1.615 2.732.365.988.185 1.701-.612 2.405-.359.318-.73.62-1.114.908-.578.431-.764 1.003-.596 1.677.096.384.237.773.434 1.115.98 1.686 2.235 3.139 3.808 4.304.266.198.578.345.89.467.655.264 1.236.13 1.74-.374.347-.347.71-.68 1.078-1.006.728-.645 1.525-.695 2.376-.264.668.338 1.228.818 1.773 1.315.41.374.824.755 1.165 1.19.608.77.542 1.431-.186 2.081-.569.506-1.144 1.022-1.773 1.444-.97.65-2.076.91-3.406.905h-.009Z" fill="#000"/></svg>