<svg width="61" height="53" fill="none" xmlns="http://www.w3.org/2000/svg"><path d="M10.46 45.933H3.045c-.472 0-.943 0-1.412-.035C.9 45.838.391 45.443.125 44.76c-.27-.698-.087-1.317.41-1.84.594-.625 1.254-1.193 1.814-1.846 3.26-3.795 5.248-8.246 6.6-13.008 1.12-3.947 1.652-7.983 1.657-12.088.002-3.376-.003-6.753.002-10.13.002-1.734.584-2.323 2.333-2.332 2.316-.014 4.632-.005 6.948-.005h1.447c0-.662-.033-1.2.007-1.732.087-1.119.797-1.797 1.8-1.772.955.026 1.605.684 1.709 1.749.026.273.004.549.02.824.017.264.053.528.086.858h8.678c.02-.372.091-.72.051-1.058-.176-1.524.745-2.4 1.81-2.38 1.218.026 1.92 1.094 1.748 2.317-.047.339-.007.692-.007 1.112h8.95c0-.365.042-.745-.008-1.11-.174-1.254.556-2.295 1.744-2.319 1.086-.02 1.99.877 1.807 2.373-.038.304-.005.62-.005 1.063.472.026.882.068 1.292.068 2.276.007 4.554-.002 6.83.005 1.925.007 2.48.549 2.48 2.424v44.64c0 1.835-.557 2.422-2.364 2.422-14.998.007-29.995.007-44.993 0-1.807 0-2.356-.587-2.363-2.425-.005-1.414-.01-2.827-.019-4.239 0-.073-.045-.146-.127-.4l-.002.002Zm46.295-28.188H14.138c-.462 8.945-2.748 17.217-8.257 24.58.58.026.957.057 1.334.057 12.952.003 25.907-.01 38.86.024.925 0 1.528-.309 2.113-.976 2.302-2.622 4.043-5.58 5.384-8.789 1.972-4.72 2.945-9.648 3.183-14.898v.002ZM37.236 7.09c0 .545.007.969 0 1.393-.028 1.286-.683 2.066-1.744 2.083-1.065.014-1.76-.77-1.793-2.031-.011-.46 0-.92 0-1.402h-8.77c-.026.61-.028 1.152-.077 1.687-.1 1.062-.76 1.72-1.716 1.741-1.001.021-1.706-.66-1.79-1.784-.04-.532-.008-1.07-.008-1.651h-7.132v6.901H56.72v-6.87h-6.996c0 .372-.023.643.005.911.2 1.86-.91 2.512-1.803 2.495-1.006-.018-1.932-.838-1.748-2.436.038-.327-.038-.671-.064-1.034h-8.876l-.002-.003Zm19.512 27.623-.184-.012c-.167.35-.33.704-.502 1.053-1.564 3.183-3.463 6.14-5.88 8.758-.943 1.023-1.987 1.454-3.41 1.447-10.36-.052-20.719-.028-31.08-.028h-1.474v3.423h42.53V34.71v.003Z" fill="#fff"/></svg>