<svg width="32" height="34" fill="none" xmlns="http://www.w3.org/2000/svg"><path d="M.025 26.154c.694.252 1.33.57 2.003.713 1.837.393 4.837-.083 6.202-1.373.607-.574 1.142-1.223 1.778-1.915.605.622 1.083 1.132 1.58 1.624 2.348 2.33 5.749 2.342 8.104.025.5-.492.968-1.02 1.504-1.589.518.517.986.941 1.406 1.408 1.9 2.11 6.115 2.547 8.474 1.125.037-.022.084-.025.185-.05.02.15.055.291.055.434.004 2.159.008 2.955 0 5.114-.006 1.308-.617 1.907-1.932 1.907-8.25 0-19.228.002-27.479 0-1.275 0-1.895-.606-1.9-1.867-.009-2.16-.003-2.956-.002-5.114 0-.15.014-.302.022-.443v.001Z" fill="#EF5632"/><path d="M10.107 20.259c-1.167 1.178-2.238 2.255-3.305 3.338-.85.862-3.242 1.215-4.41.922C1.085 24.189.21 23.313.089 21.96c-.112-1.236-.12-2.505.04-3.733.285-2.191 3.58-3.847 5.794-3.888 2.431-.045 4.863-.016 7.294-.019h.816v-3.137h3.194v3.137h.801c2.295 0 4.593.06 6.886-.015 2.701-.088 6.477 1.994 6.42 5.06-.012.658.01 1.318-.004 1.977-.03 1.398-.62 2.48-1.935 3.02-1.31.536-3.86.226-4.858-.773-1.074-1.074-2.14-2.157-3.25-3.278-.533.524-1.014.997-1.494 1.473-.63.623-1.244 1.264-1.889 1.87-1.332 1.253-3.15 1.258-4.473-.002-.938-.893-1.84-1.823-2.754-2.741-.176-.177-.329-.376-.569-.653ZM15.66 0c1.026 1.81 2.015 3.432 2.884 5.12.657 1.276.207 2.843-.911 3.729a3.166 3.166 0 0 1-3.907.034c-1.127-.87-1.616-2.453-.972-3.719.868-1.708 1.875-3.348 2.904-5.164h.002Z" fill="#EF5632"/></svg>