<svg width="40" height="30" fill="none"><g fill="#000" clip-path="url(#a)"><path d="M19.66 0c4.35.18 8.66.32 12.97.54 3.34.16 5.4 1.87 6.04 5.16.36 1.82.5 3.71.55 5.58.13 3.88.17 7.78-.27 11.64a11.3 11.3 0 0 1-.96 3.46c-.99 2.1-2.83 3.04-5.07 3.19-7.4.5-14.8.56-22.2.2a62.8 62.8 0 0 1-4.97-.36 5.48 5.48 0 0 1-4.91-4.13 16.73 16.73 0 0 1-.6-3.55c-.32-4.89-.36-9.78.13-14.65.11-1.12.46-2.28.95-3.3C2.35 1.64 4.22.66 6.52.55 10.91.33 15.3.18 19.66 0Zm-.03 2.32c-4.32.18-8.66.34-13 .54-1.47.07-2.72.64-3.32 2.08a9.1 9.1 0 0 0-.68 2.67 82.13 82.13 0 0 0 .01 15.1c.33 3.41 1.5 4.41 4.56 4.54 5.08.2 10.16.36 15.24.39 3.4.01 6.79-.23 10.18-.38 1.43-.06 2.7-.53 3.32-1.94.37-.83.64-1.75.73-2.65.44-4.72.4-9.45.1-14.18-.06-.94-.24-1.89-.45-2.81a3.24 3.24 0 0 0-2.03-2.44 5.85 5.85 0 0 0-1.78-.38c-4.29-.2-8.57-.37-12.89-.54Z"/><path d="M14.66 14.58v-4c0-.24 0-.47.02-.7.13-1.28 1.24-1.94 2.38-1.33 2.88 1.54 5.74 3.11 8.58 4.72 1.21.68 1.2 2.18-.02 2.86a459.23 459.23 0 0 1-8.54 4.62c-1.2.64-2.36-.08-2.4-1.47-.05-1.56-.01-3.13-.01-4.7Zm2.38-3.42v7l6.4-3.47-6.4-3.53Z"/></g><defs><clipPath id="a"><path fill="#fff" d="M0 0h39.31v30H0z"/></clipPath></defs></svg>