<svg width="57" height="55" fill="none" xmlns="http://www.w3.org/2000/svg"><path d="M43.634 18.414c1.139-2.204 1.652-4.335 1.567-6.512-.115-2.91-1.533-5.608-3.889-7.398-2.36-1.792-5.345-2.434-8.185-1.763-1.855.44-3.493 1.372-5.002 2.847l-.042-.037c-.099-.087-.17-.15-.24-.214-3.363-3.127-8.005-3.74-11.829-1.56-3.81 2.172-5.668 6.48-4.729 10.974.456 2.177 1.445 4.257 3.028 6.362 3.031 4.027 7.168 7.493 13.02 10.9.272.157.522.22.76.22.4 0 .754-.178 1.07-.362 3.996-2.315 7.298-4.814 10.099-7.637 1.917-1.936 3.348-3.839 4.372-5.822v.002Zm-.69-6.024c-.026 1.79-.541 3.518-1.623 5.442-1.187 2.112-2.858 4.096-5.26 6.247-2.14 1.917-4.522 3.664-7.28 5.341-.44.267-.689.396-1.112.134-3.378-2.094-7.681-5.033-11.018-9.18-1.65-2.05-2.627-3.95-3.08-5.98-.838-3.76.733-7.228 4.005-8.831a7.508 7.508 0 0 1 3.312-.785c2.227 0 4.4 1.035 6.024 2.987.435.522.787.847 1.208.847.433 0 .812-.355 1.286-.926 2.053-2.47 4.637-3.366 7.681-2.662 2.964.686 4.865 2.605 5.647 5.71.09.358.124.73.159 1.124.016.18.032.357.053.534l-.002-.002ZM14.546 44.483a321.033 321.033 0 0 1-3.714-2.895c-.693-.545-1.385-1.09-2.082-1.633-.958-.748-1.641-1.625-2.09-2.686-.74-1.749-1.507-3.52-2.246-5.235-.522-1.208-1.044-2.416-1.562-3.626-.127-.297-.25-.61-.255-.893-.014-1.335-.017-2.695-.021-4.009a493.776 493.776 0 0 0-.016-3.695c-.005-.433.154-.614.6-.69.684-.115 1.18.07 1.473.556.347.578.578 1.117.679 1.604.17.808.271 1.648.37 2.463.028.234.058.467.088.701.165 1.293.92 1.372 1.238 1.346.692-.057 1.116-.674 1.054-1.532l-.01-.134c-.06-.835-.122-1.698-.324-2.521-.26-1.059-.534-2.08-1.035-2.96-1.018-1.78-3.164-2.397-4.992-1.433-.996.52-1.463 1.277-1.433 2.31.027.907.02 1.832.016 2.727-.002.39-.005.784-.005 1.176 0 .36-.004.72-.009 1.081-.009.856-.02 1.74.028 2.612.046.828.198 1.558.45 2.17.624 1.512 1.28 3.035 1.918 4.51.586 1.36 1.192 2.764 1.767 4.153.653 1.577 1.654 2.87 3.056 3.954.722.559 1.44 1.125 2.158 1.689.983.773 1.997 1.571 3.01 2.342.386.295.527.58.52 1.059a225.006 225.006 0 0 0-.014 4.31l.005 1.215c0 .075-.005.154-.01.234-.016.258-.032.553.104.785.189.317.555.683.953.782.08.021.159.03.237.03.442 0 .814-.324.964-.863.064-.232.06-.47.055-.7v-.163c0-.635 0-1.272-.005-1.91-.004-1.408-.011-2.864.021-4.296.019-.842-.262-1.422-.939-1.94l-.002.005ZM55.97 23.566v-3.778c-.004-1.664-.796-2.624-2.416-2.93-1.574-.299-2.883.196-3.783 1.432-1.332 1.829-1.445 3.983-1.556 6.065l-.016.32a1.02 1.02 0 0 0 .283.771c.215.22.516.343.852.331.646-.014 1.068-.412 1.123-1.07a3.93 3.93 0 0 0 .014-.232c.004-.115.011-.223.025-.327.039-.278.073-.559.108-.84.085-.692.173-1.408.345-2.082a5.1 5.1 0 0 1 .854-1.749c.31-.416.828-.513 1.542-.288.363.115.368.332.34.773-.004.09-.011.18-.011.267v.663c.007 2.007.014 4.08-.026 6.116a4.385 4.385 0 0 1-.34 1.567 409.567 409.567 0 0 1-1.843 4.324 445.277 445.277 0 0 0-1.76 4.126 7.331 7.331 0 0 1-2.348 3.051c-.881.68-1.77 1.379-2.63 2.055-1.005.792-2.046 1.61-3.081 2.4-.626.479-.9 1.05-.886 1.846.025 1.417.023 2.86.018 4.254 0 .688-.004 1.379 0 2.067 0 .057-.002.117-.004.18-.012.25-.023.535.131.74.124.163.562.695 1.029.695h.004c.414-.005.84-.435 1.026-.725.15-.232.136-.536.122-.805a3.505 3.505 0 0 1-.006-.217c0-.45.004-.902.009-1.35.009-1.293.02-2.63-.026-3.947-.023-.672.182-1.083.764-1.516 1.142-.854 2.278-1.751 3.378-2.619.537-.423 1.075-.846 1.613-1.267 1.383-1.077 2.357-2.343 2.98-3.873.13-.318.258-.635.387-.955.605-1.5 1.231-3.051 1.967-4.51 1.662-3.286 2.24-6.135 1.816-8.96l.002-.003Z" fill="#fff"/><path d="M42.115 38.35a3.05 3.05 0 0 0 .541-.471l.095-.097 5.785-5.77 1.422-1.42.122-.125c.453-.488.63-.83.614-1.18-.016-.339-.221-.659-.681-1.07-1.197-1.063-2.483-1.544-3.93-1.473-1.521.076-2.886.732-4.299 2.057-.58.546-1.148 1.119-1.7 1.675-.592.596-1.202 1.213-1.825 1.79a4.854 4.854 0 0 1-1.533.972c-4.296 1.629-6.974 5.474-6.993 10.037-.009 2.322-.007 4.685-.004 6.968v2.347c.002.069-.005.14-.01.214-.018.239-.039.508.106.709.265.363.663.793 1.066.793h.009c.53-.009.999-.75 1.052-.835.138-.225.117-.518.096-.773a3.115 3.115 0 0 1-.014-.25c0-1.011 0-2.021-.004-3.032-.005-2.096-.012-4.263.016-6.394.046-3.546 2.568-6.81 5.999-7.76.446-.124.934-.414 1.334-.793a93.633 93.633 0 0 0 1.818-1.793 95.868 95.868 0 0 1 1.95-1.917 9.294 9.294 0 0 1 1.79-1.323c.93-.52 1.843-.508 2.782.037a27.03 27.03 0 0 1-.667.695l-3.08 3.077-2.777 2.775a3.245 3.245 0 0 1-.186.168c-.191.165-.408.352-.479.605-.055.193-.212.86.044 1.316a.9.9 0 0 0 .57.449c.297.076.64 0 .967-.205l.005-.002Zm-21.577-4.583c-1.535-.723-2.844-1.682-4.123-3.02l-.235-.245c-.5-.525-1.017-1.07-1.586-1.544-.738-.617-1.468-1.206-2.273-1.62-2.02-1.04-4.27-.73-6.02.83-.37.332-.718.697-.73 1.137-.01.357.183.7.664 1.185 1.429 1.44 2.89 2.895 4.303 4.303l1.633 1.63c.166.165.332.333.497.5.394.401.804.815 1.227 1.204.32.292.667.44 1 .417.284-.016.54-.15.742-.387.306-.356.536-.93-.106-1.636-.131-.142-.27-.278-.403-.41a12.354 12.354 0 0 1-.17-.167l-1.523-1.521a7480.74 7480.74 0 0 1-4.33-4.327c-.18-.179-.35-.363-.53-.556a2.299 2.299 0 0 0-.074-.079c.898-.547 1.823-.575 2.748-.078.644.345 1.309.835 1.97 1.454a77.52 77.52 0 0 1 2.052 2.016c.53.532 1.077 1.084 1.627 1.613.283.274.725.63 1.217.78 3.797 1.16 6.075 4.207 6.093 8.148.01 1.998.007 4.03.005 5.992v3.194c-.002.237-.007.481.023.725.083.656.502 1.045 1.123 1.045h.02c.62-.01 1.038-.407 1.121-1.068a4.1 4.1 0 0 0 .019-.557v-.16c0-.958.004-1.915.009-2.872.011-2.15.023-4.372-.025-6.558-.097-4.336-2.159-7.573-5.963-9.366l-.002-.002ZM8.89 4.214a.927.927 0 0 0 .985.018c.38-.22.612-.667.591-1.139a.184.184 0 0 0-.011-.06c-.005-.015-.007-.036-.012-.06-.02-.119-.05-.298-.19-.411l-.332-.267c-.769-.617-1.563-1.254-2.4-1.804-.318-.21-1.052.126-1.252.433-.207.315-.203 1.042.08 1.3.882.81 1.712 1.459 2.54 1.99Zm37.993.152c.262 0 .539-.106.815-.318l.25-.193a49.61 49.61 0 0 0 1.731-1.369c.173-.145.292-.334.419-.532.057-.09.117-.184.186-.278a.232.232 0 0 0 .005-.265c-.058-.082-.108-.18-.159-.271-.124-.23-.255-.47-.488-.552-.361-.13-.904-.173-1.245.041-.73.463-1.39 1.001-2.112 1.608-.315.265-.5.596-.518.94-.016.292.088.572.297.793.248.263.527.394.82.394v.002ZM4.84 7.94c1.063.269 1.954.462 2.805.612.076.013.152.02.223.02.52 0 .923-.338 1.054-.91.143-.627-.184-1.158-.812-1.326-.665-.177-1.35-.316-1.954-.44a66.076 66.076 0 0 1-.688-.142.167.167 0 0 0-.039-.005c-.819-.032-1.295.267-1.422.884-.131.632.198 1.145.835 1.307H4.84Zm42.483-.295c.09.423.382.923 1.251.923h.083c.014 0 .028 0 .044-.005.24-.055.488-.108.743-.163a57.133 57.133 0 0 0 1.954-.451c.637-.164.969-.675.849-1.3-.122-.636-.635-.992-1.275-.891a33.26 33.26 0 0 0-2.816.575c-.629.159-.962.688-.829 1.314l-.004-.002Z" fill="#fff"/></svg>