<svg xmlns="http://www.w3.org/2000/svg" width="30" height="30" fill="none"><g fill="#000" clip-path="url(#a)"><path d="M29.97 11.852c.012 2.67.025 5.43-.02 8.141-.02 1.08-.085 2.493-.406 3.837-.78 3.254-3.34 5.5-6.685 5.863-1.439.156-2.91.185-4.332.214l-.305.007c-.485.009-.98.02-1.468.037-.401.015-.813.011-1.213.008h-.043a50.29 50.29 0 0 0-.521-.004h-.26V30c-.605-.014-1.205-.027-1.807-.038h-.115c-1.527-.034-3.106-.066-4.655-.142-1.98-.095-3.673-.697-5.03-1.79C1.402 26.657.426 24.783.212 22.465c-.174-1.858-.203-3.728-.208-5.151-.015-3.04.016-5.786.093-8.393.032-1.088.174-2.094.422-2.989C1.414 2.69 3.644.758 7.148.187A13.609 13.609 0 0 1 9.33 0l2.138.004C14.757.007 18.482.01 22.098.1a7.822 7.822 0 0 1 4.84 1.78c1.695 1.373 2.643 3.218 2.9 5.64.103.973.12 1.956.124 2.705l.007 1.626Zm-2.248 8.197c.034-3.105.035-6.343.003-10.192-.009-1.06-.091-1.985-.253-2.831-.451-2.38-1.862-3.874-4.194-4.444a9.265 9.265 0 0 0-2.06-.275c-3.641-.06-6.8-.088-9.655-.08-1.292.001-2.6.066-3.89.19-2.76.271-4.681 2.068-5.136 4.806-.097.591-.198 1.292-.196 1.997l.004 2.379c.002 3.171.003 6.767.091 10.252.067 2.76 1.582 4.742 4.155 5.441a8.955 8.955 0 0 0 1.994.304c1.585.063 3.197.097 4.62.127l2.025.047v-.061l.898.005c.906.008 1.792.013 2.662-.012 1.175-.034 2.508-.072 3.825-.232 2.49-.298 4.233-1.863 4.783-4.294.205-.915.311-1.937.324-3.127Z"/><path d="m23.165 5.033.014.178a1.56 1.56 0 0 1 1.1.47c.298.306.46.712.454 1.145a1.56 1.56 0 0 1-.47 1.109 1.558 1.558 0 0 1-1.136.438 1.583 1.583 0 0 1-1.545-1.576c.002-.41.178-.82.481-1.123a1.572 1.572 0 0 1 1.102-.463v-.178ZM22.595 14.94c0 2.039-.79 3.954-2.23 5.393a7.53 7.53 0 0 1-5.369 2.218c-4.161-.01-7.554-3.414-7.56-7.59-.006-4.178 3.377-7.592 7.54-7.61h.035c2.016 0 3.913.783 5.344 2.205a7.573 7.573 0 0 1 2.24 5.385Zm-2.25.055c.013-2.988-2.314-5.351-5.298-5.376a5.22 5.22 0 0 0-3.775 1.536c-.505.5-.9 1.082-1.174 1.734a5.324 5.324 0 0 0-.41 2.048 5.324 5.324 0 0 0 1.566 3.793 5.288 5.288 0 0 0 3.764 1.56c1.421 0 2.79-.593 3.755-1.552a5.3 5.3 0 0 0 1.573-3.743Z"/></g><defs><clipPath id="a"><path fill="#fff" d="M0 0h29.98v30H0z"/></clipPath></defs></svg>