<svg width="101" height="97" fill="none" xmlns="http://www.w3.org/2000/svg"><path d="M95.858 83.814c-.694-3.52-1.38-5.786-6.881-7.149v-1.814c0-8.984.038-17.972-.038-26.955-.012-1.426.43-2.333 1.58-3.094 1.334-.882 2.592-1.881 3.859-2.86 1.747-1.354 1.76-2.278-.013-3.586-5.158-3.8-10.338-7.562-15.509-11.341C70.2 20.69 61.546 14.36 52.892 8.035c-.226-.162-.447-.33-.677-.488-1.635-1.137-1.823-1.154-3.495.058-3.27 2.37-6.521 4.766-9.782 7.144-.498.364-1.012.707-1.685 1.175v-5.576c.418-.398 1.058-.782 1.355-1.35.267-.51.192-1.213.2-1.836a143.4 143.4 0 0 0 0-5.016C38.766.56 38.252.03 36.643.022c-5.226-.03-10.447-.03-15.672 0-1.643.008-2.174.518-2.212 2.082-.046 1.948-.038 3.9 0 5.848.025 1.258.067 1.258 1.63 2.437v17.88c-1.333.99-2.713 2.027-4.109 3.047-3.09 2.262-6.187 4.515-9.276 6.773-.28.204-.573.397-.828.635-1.066.987-1.12 1.885-.004 2.813a53.894 53.894 0 0 0 4.34 3.261c1.14.77 1.6 1.655 1.588 3.09-.075 8.983-.038 17.97-.038 26.954v1.81c-4.77 1.36-5.932 2.58-6.885 7.178-1.948.694-3.486 1.932-4.31 3.909-1.764 4.239 1.175 8.93 5.777 9.239.556.037 1.112.016 1.672.016 28.139 0 56.281 0 84.42-.012 1.032 0 2.106-.034 3.093-.297a6.538 6.538 0 0 0 4.836-5.673c.28-2.721-1.062-5.25-3.515-6.597-.423-.23-.87-.418-1.28-.61l-.012.008Zm-45.47-63.229c.272.105.418.13.522.205 11.208 8.143 22.407 16.3 33.636 24.41.944.68 1.09 1.454 1.09 2.482-.02 14.766-.012 29.535-.02 44.3 0 .53-.088 1.058-.134 1.563-5.668.398-35.06.218-36.64-.234v-36.34c0-.556.033-1.116-.018-1.672-.104-1.116-.602-1.634-1.68-1.764-.414-.05-.836-.02-1.254-.02H24.992c-.418 0-.84-.03-1.254.02-.982.125-1.513.627-1.635 1.589-.067.547-.025 1.111-.025 1.667v36.713h-6.68v-1.999c0-14.489.021-28.974-.033-43.463-.005-1.48.426-2.391 1.638-3.265 8.54-6.128 17.023-12.336 25.526-18.519 2.638-1.919 5.284-3.825 7.855-5.69l.004.017Zm-5.046 36.378c.347 3.524.222 35.082-.13 36.59-4.673.348-18.234.197-19.677-.204V56.963h19.808ZM87.28 43.067c-3.796-2.755-7.512-5.447-11.22-8.143-7.88-5.731-15.76-11.475-23.64-17.202-1.831-1.334-1.965-1.317-3.842.008a59540.383 59540.383 0 0 1-26.516 19.293c-2.751 2.002-5.506 3.992-8.336 6.044l-3.867-2.91a373623.93 373623.93 0 0 1 40.646-29.705c13.553 9.903 27.014 19.744 40.654 29.71-1.417 1.062-2.617 1.96-3.875 2.905h-.004Zm-53.59-24.48-9.765 7.12c-.36-3.575-.238-14.156.142-15.56h9.623v8.444-.004Zm55.386 61.815c2.567.427 3.457 1.677 3.081 4.206-.234 1.597.16 2.14 1.74 2.37.204.03.422 0 .622.038 1.68.334 2.847 1.755 2.797 3.398-.05 1.652-1.284 3.077-2.997 3.194-1.714.117-3.441.025-5.247.025V80.406l.004-.004ZM11.933 93.65c-1.781 0-3.382.067-4.975-.017-2.182-.113-3.625-1.969-3.21-3.992.3-1.455 1.412-2.412 3.097-2.659 1.981-.292 2.257-.64 1.982-2.504-.343-2.328.551-3.557 3.101-4.13V93.65h.004ZM35.372 6.552c-3.198.31-11.68.217-13.323-.16.226-.965-.255-2.006.263-2.925h13.06v3.085Z" fill="#EF5632"/><path d="M78.944 66.908c0-3.55.008-7.098 0-10.647-.008-2.337-.372-2.73-2.617-2.734-6.057-.013-12.11-.013-18.168 0-2.245.004-2.625.4-2.63 2.721-.008 7.098 0 14.2 0 21.3 0 .208-.008.417 0 .626.088 1.568.578 2.082 2.2 2.103 2.922.037 5.848.012 8.77.012h9.398c2.8 0 3.047-.255 3.047-3.143V66.908Zm-9.995-9.694c1.454-.44 4.418-.485 6.638-.08 0 2.647.021 5.318-.012 8.094-1.288 0-2.325.033-3.361-.009-1.083-.042-2.195.205-3.27-.213v-7.788l.005-.004Zm-3.457 8.014c-1.255 0-2.296.033-3.328-.009-1.079-.046-2.195.23-3.177-.2v-8.014h6.505v8.227-.004Zm3.42 11.617c0-1.468-.013-2.78 0-4.089.016-1.362-.076-2.738.079-4.176 1.233 0 2.274-.033 3.306.008 1.079.047 2.195-.221 3.186.201v8.056h-6.576.004Zm-9.913.054v-8.18h6.56c0 1.454.037 2.77-.009 4.083-.05 1.359.222 2.743-.213 4.097h-6.338Zm-18.435-4.962c-.92-.046-1.748.752-1.73 1.676.012.836.735 1.584 1.571 1.63.916.046 1.748-.756 1.73-1.676-.012-.84-.735-1.584-1.571-1.626v-.004Z" fill="#EF5632"/></svg>