<svg width="15" height="20" fill="none" xmlns="http://www.w3.org/2000/svg"><path d="M6.948 0c4.02-.003 7.156 2.924 7.44 6.686.108 1.423-.263 2.747-.79 4.038-.794 1.941-1.876 3.723-3.11 5.407-.841 1.15-1.743 2.253-2.636 3.364-.458.569-.827.56-1.297.009-1.878-2.202-3.603-4.515-4.951-7.088C.933 11.143.354 9.828.112 8.396-.251 6.252.27 4.323 1.637 2.651 3.062.905 4.95.054 6.947 0Zm.266 10.826a3.627 3.627 0 0 0 3.619-3.61c.006-1.992-1.642-3.64-3.64-3.636-1.98.006-3.606 1.632-3.618 3.618-.01 1.998 1.63 3.63 3.64 3.628Z" fill="#000"/></svg>