<svg width="93" height="67" fill="none" xmlns="http://www.w3.org/2000/svg"><path d="M7.663 5.658c.495-3.685.487-3.721 3.96-4.41 7.85-1.563 15.642-1.592 23.33.923C39.19 3.557 42.883 5.85 46.01 8.94c.217-.062.361-.062.437-.134C53.284 2.32 61.672.085 70.785.23c3.696.057 7.396.75 11.066 1.328 2.505.393 2.545.606 2.664 3.19.01.231.061.459.123.932 1.638 0 3.24-.011 4.843 0 2.473.021 2.924.483 2.927 2.974v54.85c0 .241.008.48 0 .721-.083 1.975-1.23 2.707-2.995 1.841-4.126-2.025-8.468-3.36-12.961-4.266-9.464-1.91-18.873-1.595-28.279.458a9.468 9.468 0 0 1-3.887.018C31.654 59.544 19.22 59.937 7.01 64.391c-1.408.513-2.761 1.17-4.147 1.747-1.614.671-2.722-.007-2.848-1.743-.029-.419-.007-.841-.007-1.263V9.004c0-.361-.011-.722.003-1.083.073-1.577.607-2.191 2.191-2.249 1.794-.068 3.595-.014 5.465-.014h-.004Zm36.612 51.41c.058-.325.116-.494.116-.664-.004-14.25 0-28.495-.054-42.744 0-.628-.372-1.39-.812-1.86-2.123-2.259-4.656-3.977-7.504-5.197-7.392-3.168-15.047-3.295-22.818-1.894-1.797.324-1.804.357-1.804 2.144v43.466c0 .57.061 1.14.1 1.79 11.467-1.097 22.544-.967 32.773 4.96h.003Zm36.515-4.944V5.004c-6.731-1.353-13.318-1.67-19.927.055-4.453 1.162-8.387 3.208-11.74 6.385-.794.75-1.152 1.526-1.148 2.66.043 13.83.025 27.665.032 41.499 0 .444.055.888.098 1.52 5.028-2.986 10.297-4.473 15.837-5.151 5.58-.686 11.15-.444 16.848.155v-.004ZM3.696 9.26v52.522c9.987-3.988 20.223-5.479 30.83-4.826-2.616-.696-5.233-1.267-7.882-1.573-5.349-.621-10.683-.21-15.996.516-1.931.263-2.689-.35-2.75-2.27-.015-.48 0-.96 0-1.444V9.419c-.52-.069-.863-.152-1.21-.16-.949-.017-1.902-.006-2.984-.006l-.008.007ZM57.8 56.707l.04.502c10.633-.95 20.901.62 30.874 4.555V9.397H84.57v2.27c0 13.835 0 27.673-.004 41.507 0 2.48-.595 2.952-3.035 2.645-5.323-.671-10.665-1.06-16.014-.43-2.588.308-5.147.87-7.72 1.315l.003.003Z" fill="#EF5632"/></svg>